{"title":"Dexter S06E05 HDTV XviD-DiViSiON[ettv]","uid":6785482,"size":440079825,"categoryP":"video","categoryS":"tv_shows","magnet":"?xt=urn:btih:dd647bbd451d203d40e52604c5848e7ead3137df&amp;dn=Dexter+S06E05+HDTV+XviD-DiViSiON%5Bettv%5D&amp;tr=udp%3A%2F%2Ftracker.openbittorrent.com%3A80&amp;tr=udp%3A%2F%2Fopen.demonii.com%3A1337&amp;tr=udp%3A%2F%2Ftracker.coppersurfer.tk%3A6969&amp;tr=udp%3A%2F%2Fexodus.desync.com%3A6969","seeders":1,"leechers":0,"uploader":"ettv","files":2,"time":1320071886,"description":"Dexter.S06E05.HDTV.XviD-DiViSiON\n\nGeneral Information\n\nGenre: Crime, Drama\nNetwork: Showtime (USA)\nRuntime: 60 minutes\nAired 30.10.2011\n\nVideo Information\n\nID : 0\nFormat : xvid\nCodec ID : xvid\nDuration : 51mn 27s\nBit rate : 1 000 Kbps\nWidth : 640 pixels\nHeight : 352 pixels\nDisplay aspect ratio : 16:9\nFrame rate : 25.000 fps\nBits/(Pixel*Frame) : 0.178\nStream size : 368 MiB (88%)\nFormat/Info: Audio Video Interleave\nFile Size: 420 MiB\nDuration: 51mn 28s\nOverall bit rate: 1,140 Kbps\nWriting application: Lavf52.47.0\n\nAudio Information\n\nID : 1\nFormat : MPEG Audio\nFormat version : Version 1\nFormat profile : Layer 3\nMode : Joint stereo\nCodec ID : 55\nCodec ID/Hint : MP3\nDuration : 51mn 28s\nBit rate mode : Constant\nBit rate : 128 Kbps\nChannel(s) : 2 channels\nSampling rate : 44.1 KHz\nCompression mode : Lossy\nStream size : 47.1 MiB (11%)\nAlignment : Aligned on interleaves\nInterleave, duration : 26 ms (0.65 video frame)\nWriting library : LAME3.98.2","torrent":{"xt":"urn:btih:dd647bbd451d203d40e52604c5848e7ead3137df","amp;dn":"Dexter+S06E05+HDTV+XviD-DiViSiON%5Bettv%5D","amp;tr":["udp%3A%2F%2Ftracker.openbittorrent.com%3A80","udp%3A%2F%2Fopen.demonii.com%3A1337","udp%3A%2F%2Ftracker.coppersurfer.tk%3A6969","udp%3A%2F%2Fexodus.desync.com%3A6969"],"infoHash":"dd647bbd451d203d40e52604c5848e7ead3137df","infoHashBuffer":{"type":"Buffer","data":[221,100,123,189,69,29,32,61,64,229,38,4,197,132,142,126,173,49,55,223]},"announce":[],"urlList":[]}}